#!OML:ASF H:\BabyWalks\Project 1\Capture day 1\Session 1\baby.ASF
:FULLY-SPECIFIED
:DEGREES
398
root 0.144338 18.2925 -0.866548 -34.6477 84.9701 -46.4751
lowerback 19.3538 -0.443739 -2.29892
upperback 3.331 -0.942809 -1.10468
thorax -7.20622 -0.32974 0.345818
lowerneck -1.75711 2.28035 6.29522
upperneck 0.471272 2.93359 -2.4766
head 0.58206 1.4679 -1.81198
rclavicle -2.78299e-015 -7.95139e-016
rhumerus -58.0685 6.48604 -84.7805
rradius 40.8588
rwrist -0.66254
rhand -2.68845 -18.4771
rfingers 7.12502
rthumb 23.0129 -47.1232
lclavicle -2.78299e-015 -7.95139e-016
lhumerus -44.9615 -5.70948 70.439
lradius 64.77
lwrist 0.142071
lhand -10.0634 12.0496
lfingers 7.12502
lthumb 15.9226 41.4151
rfemur -23.8347 4.55664 21.4066
rtibia 28.7258
rfoot -23.2548 -11.4637
rtoes -14.5291
lfemur -12.861 0.93463 -16.4371
ltibia 26.359
lfoot -18.4507 -0.746335
ltoes -11.3304
399
root 0.331097 18.3311 -0.845259 -34.6544 85.1409 -46.6907
lowerback 19.2908 -0.502088 -2.29649
upperback 3.33146 -1.01067 -1.01629
thorax -7.1687 -0.362534 0.455968
lowerneck -1.74418 2.18586 6.20017
upperneck 0.411924 2.80979 -2.41703
head 0.552694 1.40542 -1.77775
rclavicle -1.82882e-014 -1.35174e-014
rhumerus -58.4319 6.45134 -84.7256
rradius 40.9213
rwrist -0.807576
rhand -2.62138 -18.4317
rfingers 7.12502
rthumb 23.0773 -47.0698
lclavicle -1.82882e-014 -1.35174e-014
lhumerus -44.9134 -5.76907 70.458
lradius 66.4077
lwrist 0.99999
lhand -10.0014 11.804
lfingers 7.12502
lthumb 15.9823 41.1647
rfemur -24.6307 4.29365 21.5872
rtibia 27.1661
rfoot -23.3333 -11.4578
rtoes -14.4153
lfemur -12.1256 0.88437 -16.4388
ltibia 25.6184
lfoot -17.8264 -1.2049
ltoes -12.1021
400
root 0.519581 18.3673 -0.824061 -35.0236 85.3552 -47.2609
lowerback 19.2131 -0.574267 -2.28081
upperback 3.34103 -1.09161 -0.909747
thorax -7.1127 -0.401953 0.580907
lowerneck -1.75744 2.08321 6.13042
upperneck 0.38129 2.67318 -2.40617
head 0.537806 1.33645 -1.76367
rclavicle 1.03368e-014 2.22639e-014
rhumerus -58.7759 6.45339 -84.6633
rradius 41.0038
rwrist -0.881312
rhand -2.517 -18.3519
rfingers 7.12502
rthumb 23.1774 -46.9774
lclavicle 1.03368e-014 2.22639e-014
lhumerus -44.9053 -5.85739 70.5363
lradius 67.9331
lwrist 1.80016
lhand -9.83817 11.5242
lfingers 7.12502
lthumb 16.1395 40.8722
rfemur -25.3968 3.9945 21.766
rtibia 25.7183
rfoot -23.3793 -11.3043
rtoes -14.4088
lfemur -11.4237 0.841286 -16.4429
ltibia 24.9346
lfoot -17.1857 -1.72147
ltoes -12.8282
401
root 0.709119 18.4008 -0.803245 -35.8182 85.6172 -48.2492
lowerback 19.1261 -0.660492 -2.25167
upperback 3.3577 -1.18616 -0.78462
thorax -7.04328 -0.448217 0.720997
lowerneck -1.80202 1.97372 6.08104
upperneck 0.385396 2.52534 -2.44367
head 0.539954 1.26181 -1.76868
rclavicle -2.78299e-015 -1.27222e-014
rhumerus -59.0941 6.48767 -84.5838
rradius 41.1042
rwrist -0.940448
rhand -2.36253 -18.2501
rfingers 7.12502
rthumb 23.3256 -46.8569
lclavicle -2.78299e-015 -1.27222e-014
lhumerus -44.9312 -5.95614 70.6779
lradius 69.3209
lwrist 2.51448
lhand -9.64672 11.2095
lfingers 7.12502
lthumb 16.3238 40.5425
rfemur -26.1389 3.71731 21.9127
rtibia 24.4128
rfoot -23.3672 -11.0686
rtoes -14.4427
lfemur -10.769 0.820836 -16.4542
ltibia 24.3263
lfoot -16.5354 -2.3049
ltoes -13.5182
402
root 0.899245 18.431 -0.782815 -37.1352 85.9358 -49.7474
lowerback 19.0419 -0.76034 -2.21244
upperback 3.37886 -1.29504 -0.643274
thorax -6.96951 -0.501477 0.8758
lowerneck -1.87843 1.85602 6.05507
upperneck 0.422775 2.36449 -2.52977
head 0.558578 1.18055 -1.79356
rclavicle -1.59028e-015 7.95139e-016
rhumerus -59.3882 6.53697 -84.4764
rradius 41.2192
rwrist -1.00566
rhand -2.16053 -18.1401
rfingers 7.12502
rthumb 23.5194 -46.7222
lclavicle -1.59028e-015 7.95139e-016
lhumerus -44.9849 -6.05422 70.8801
lradius 70.5549
lwrist 3.11867
lhand -9.43763 10.9098
lfingers 7.12502
lthumb 16.5251 40.2261
rfemur -26.8529 3.52112 21.989
rtibia 23.2773
rfoot -23.2871 -10.8314
rtoes -14.4108
lfemur -10.1712 0.839618 -16.4793
ltibia 23.8161
lfoot -15.8846 -2.97226
ltoes -14.1378
403
root 1.08928 18.4571 -0.762826 -39.153 86.3143 -51.9253
lowerback 18.9752 -0.873317 -2.16301
upperback 3.40341 -1.4182 -0.489937
thorax -6.90056 -0.561538 1.04089
lowerneck -1.96581 1.73306 6.0533
upperneck 0.479344 2.19596 -2.66395
head 0.585789 1.09522 -1.83858
rclavicle 7.55382e-015 6.36111e-015
rhumerus -59.657 6.59035 -84.3399
rradius 41.3351
rwrist -1.08771
rhand -1.91156 -18.0276
rfingers 7.12502
rthumb 23.7582 -46.5789
lclavicle 7.55382e-015 6.36111e-015
lhumerus -45.0642 -6.14556 71.1423
lradius 71.6205
lwrist 3.61598
lhand -9.26689 10.6113
lfingers 7.12502
lthumb 16.6895 39.9139
rfemur -27.5259 3.45583 21.9613
rtibia 22.3356
rfoot -23.1216 -10.6786
rtoes -14.2519
lfemur -9.63685 0.899572 -16.5215
ltibia 23.4308
lfoot -15.2368 -3.72807
ltoes -14.6894
404
root 1.27861 18.4782 -0.743317 -42.1984 86.7483 -55.107
lowerback 18.9365 -0.999666 -2.10121
upperback 3.42783 -1.55608 -0.327936
thorax -6.8459 -0.62852 1.21187
lowerneck -2.06069 1.60473 6.06744
upperneck 0.550925 2.02006 -2.83437
head 0.619243 1.00598 -1.8986
rclavicle 2.78299e-015 1.98785e-014
rhumerus -59.8974 6.64071 -84.1727
rradius 41.4398
rwrist -1.18956
rhand -1.62476 -17.926
rfingers 7.12502
rthumb 24.0333 -46.4413
lclavicle 2.78299e-015 1.98785e-014
lhumerus -45.169 -6.21914 71.459
lradius 72.5055
lwrist 3.99929
lhand -9.15971 10.3182
lfingers 7.12502
lthumb 16.7927 39.612
rfemur -28.1509 3.55474 21.8055
rtibia 21.6011
rfoot -22.8577 -10.6747
rtoes -13.8963
lfemur -9.18297 1.01408 -16.5796
ltibia 23.2078
lfoot -14.5988 -4.583
ltoes -15.1958
405
root 1.46714 18.4935 -0.724249 -46.6647 87.2441 -59.6738
lowerback 18.9373 -1.13788 -2.04264
upperback 3.45241 -1.71047 -0.167633
thorax -6.81105 -0.702812 1.38737
lowerneck -2.14297 1.47017 6.10132
upperneck 0.622321 1.8368 -3.0384
head 0.650584 0.912778 -1.97373
rclavicle -7.15625e-015 -7.95139e-016
rhumerus -60.1119 6.67675 -83.9775
rradius 41.5257
rwrist -1.29841
rhand -1.2934 -17.8527
rfingers 7.12502
rthumb 24.351 -46.3257
lclavicle -7.15625e-015 -7.95139e-016
lhumerus -45.2952 -6.27004 71.822
lradius 73.199
lwrist 4.28629
lhand -9.12102 10.0404
lfingers 7.12502
lthumb 16.8299 39.3311
rfemur -28.7056 3.7997 21.4988
rtibia 21.0776
rfoot -22.4742 -10.8362
rtoes -13.2849
lfemur -8.81849 1.19425 -16.6735
ltibia 23.1917
lfoot -13.981 -5.54632
ltoes -15.6656
406
root 1.65477 18.5022 -0.705544 -53.749 87.7847 -66.8154
lowerback 18.9803 -1.28707 -1.98766
upperback 3.47973 -1.8802 -0.0133722
thorax -6.79466 -0.783802 1.56303
lowerneck -2.21078 1.33076 6.15361
upperneck 0.688861 1.64814 -3.2723
head 0.677868 0.816623 -2.06259
rclavicle 1.74931e-014 -9.54166e-015
rhumerus -60.299 6.69066 -83.7569
rradius 41.5815
rwrist -1.39311
rhand -0.936203 -17.8125
rfingers 7.12502
rthumb 24.6934 -46.2391
lclavicle 1.74931e-014 -9.54166e-015
lhumerus -45.4407 -6.29509 72.2222
lradius 73.7014
lwrist 4.49597
lhand -9.15346 9.78546
lfingers 7.12502
lthumb 16.7987 39.0788
rfemur -29.1722 4.14743 21.0558
rtibia 20.7647
rfoot -21.959 -11.1376
rtoes -12.4068
lfemur -8.55333 1.43558 -16.7997
ltibia 23.4205
lfoot -13.3729 -6.6192
ltoes -16.0583
407
root 1.84171 18.5029 -0.687025 -66.1881 88.3296 -79.2591
lowerback 19.0707 -1.44385 -1.93819
upperback 3.51087 -2.06135 0.130092
thorax -6.79855 -0.869465 1.7344
lowerneck -2.25996 1.18554 6.23401
upperneck 0.748163 1.45279 -3.53793
head 0.699503 0.716924 -2.1677
rclavicle 1.19271e-014 -5.96354e-015
rhumerus -60.4638 6.68148 -83.5213
rradius 41.5977
rwrist -1.45255
rhand -0.566478 -17.8045
rfingers 7.12502
rthumb 25.0477 -46.1821
lclavicle 1.19271e-014 -5.96354e-015
lhumerus -45.6034 -6.29944 72.6514
lradius 74.0104
lwrist 4.65759
lhand -9.25686 9.56458
lfingers 7.12502
lthumb 16.6992 38.8663
rfemur -29.527 4.54145 20.5053
rtibia 20.6544
rfoot -21.3169 -11.5139
rtoes -11.3219
lfemur -8.38879 1.73805 -16.9543
ltibia 23.925
lfoot -12.7738 -7.79906
ltoes -16.3963
